# xmcd
# 
# Track frame offsets:
#     182
#     17992
#     30140
#     50382
#     66252
#     90062
#     109595
#     132950
#     147667
#     160615
#     174140
#     191030
#     203065
#     225260
#     243060
#     257435
#     272392
# 
# Disc length: 3739
# 
# Revision: 18
# Processed by: cddbd v1.5.2PL0 Copyright (c) Steve Scherf et al.
# Submitted via: BonkEnc v1.0.8
# 
DISCID=c80e9911
DTITLE=Nanci Griffith - Other Voices, Other Rooms
DYEAR=1993
DGENRE=Country
TTITLE0=Across the Great Divide
TTITLE1=Woman of the Phoenix
TTITLE2=Tecumseh Valley
TTITLE3=Three Flights Up
TTITLE4=Boots of Spanish Leather
TTITLE5=Speed of the Sound of Loneliness
TTITLE6=From Clare to Here
TTITLE7=Can't Help But Wonder Where I'm Bound
TTITLE8=Do-Re-Mi
TTITLE9=This Old Town
TTITLE10=Comin' Down in the Rain
TTITLE11=Ten Degrees and Getting Colder
TTITLE12=Morning Song for Sally
TTITLE13=Night Rider's Lament
TTITLE14=Are You Tired of Me Darling
TTITLE15=Turn Around
TTITLE16=Wimoweh
EXTD=
EXTT0=
EXTT1=
EXTT2=
EXTT3=
EXTT4=
EXTT5=
EXTT6=
EXTT7=
EXTT8=
EXTT9=
EXTT10=
EXTT11=
EXTT12=
EXTT13=
EXTT14=
EXTT15=
EXTT16=
PLAYORDER=
